<svg width="24" height="24" viewBox="0 0 24 24" fill="none" xmlns="http://www.w3.org/2000/svg">
<g filter="url(#filter0_b_41_930)">
<rect width="24" height="24" rx="4" fill="#245DEF"/>
<g clip-path="url(#clip0_41_930)">
<path fill-rule="evenodd" clip-rule="evenodd" d="M11.4313 10.1018L10.6678 11.2505C10.4777 11.5377 10.5564 11.9246 10.8436 12.1147C10.9332 12.174 11.036 12.2195 11.1879 12.2197H11.7355C12.004 12.2197 12.2471 12.3285 12.423 12.5044C12.5989 12.6804 12.7077 12.9234 12.7077 13.192C12.7077 13.4606 12.5989 13.7037 12.423 13.8796C12.2471 14.0555 12.004 14.1643 11.7355 14.1643C11.5727 14.1643 11.4168 14.1249 11.2799 14.0526C11.14 13.9786 11.0203 13.8716 10.9312 13.7408C10.737 13.4563 10.349 13.3831 10.0645 13.5772C9.78001 13.7714 9.70679 14.1594 9.90095 14.4439C10.105 14.7428 10.3789 14.9872 10.6989 15.1561C11.0153 15.3232 11.3703 15.4143 11.7355 15.4143C12.3491 15.4143 12.9047 15.1655 13.3068 14.7634C13.709 14.3612 13.9578 13.8056 13.9578 13.192C13.9578 12.5784 13.709 12.0229 13.3068 11.6207C13.0333 11.3472 12.6888 11.1446 12.3034 11.043L13.0921 9.85632C13.1756 9.74744 13.2208 9.614 13.2205 9.47679C13.2205 9.1316 12.9407 8.85179 12.5955 8.85179H10.4415C10.0963 8.85179 9.81648 9.1316 9.81648 9.47679C9.81648 9.82198 10.0963 10.1018 10.4415 10.1018H11.4313Z" fill="white"/>
<path fill-rule="evenodd" clip-rule="evenodd" d="M14.4062 6.32856L14.4182 6.32859C14.7619 6.32859 15.0432 6.04734 15.0432 5.7036C15.0432 5.35985 14.7619 5.0786 14.4182 5.0786H6.0625C5.375 5.0786 4.8125 5.6411 4.8125 6.32859V17.9375C4.8125 18.625 5.375 19.1875 6.0625 19.1875H17.6875C18.375 19.1875 18.9375 18.625 18.9375 17.9375V9.59377C18.9375 9.25002 18.6562 8.96874 18.3125 8.96874C17.9687 8.96874 17.6875 9.25002 17.6875 9.59377V17.9375H6.0625V6.32856H14.4062Z" fill="white"/>
<path fill-rule="evenodd" clip-rule="evenodd" d="M16.4375 5.6875C16.4375 6.03269 16.7173 6.3125 17.0625 6.3125H17.6875V6.9375C17.6875 7.28269 17.9673 7.5625 18.3125 7.5625C18.6577 7.5625 18.9375 7.28269 18.9375 6.9375V6.3125H19.5625C19.9077 6.3125 20.1875 6.03269 20.1875 5.6875C20.1875 5.34231 19.9077 5.0625 19.5625 5.0625H18.9375V4.4375C18.9375 4.09231 18.6577 3.8125 18.3125 3.8125C17.9673 3.8125 17.6875 4.09231 17.6875 4.4375V5.0625H17.0625C16.7173 5.0625 16.4375 5.34231 16.4375 5.6875Z" fill="white"/>
</g>
</g>
<defs>
<filter id="filter0_b_41_930" x="-8" y="-8" width="40" height="40" filterUnits="userSpaceOnUse" color-interpolation-filters="sRGB">
<feFlood flood-opacity="0" result="BackgroundImageFix"/>
<feGaussianBlur in="BackgroundImageFix" stdDeviation="4"/>
<feComposite in2="SourceAlpha" operator="in" result="effect1_backgroundBlur_41_930"/>
<feBlend mode="normal" in="SourceGraphic" in2="effect1_backgroundBlur_41_930" result="shape"/>
</filter>
<clipPath id="clip0_41_930">
<rect width="16" height="16" fill="white" transform="translate(4.5 3.5)"/>
</clipPath>
</defs>
</svg>
