<svg width="24" height="24" viewBox="0 0 24 24" fill="none" xmlns="http://www.w3.org/2000/svg">
<g filter="url(#filter0_b_41_936)">
<rect width="24" height="24" rx="4" fill="#FB7800"/>
<g clip-path="url(#clip0_41_936)">
<path d="M16.3944 10.0727C16.3512 10.0186 16.2989 10.0292 16.2715 10.0403C16.2485 10.0496 16.1959 10.0793 16.2032 10.1539C16.2119 10.2434 16.2168 10.3347 16.2178 10.4252C16.2217 10.8008 16.071 11.1687 15.8044 11.4347C15.5396 11.6989 15.1912 11.8413 14.8203 11.8372C14.3136 11.8307 13.8933 11.5664 13.6049 11.0729C13.3664 10.6648 13.4713 10.1385 13.5822 9.58119C13.6472 9.255 13.7143 8.91769 13.7143 8.59666C13.7143 6.097 12.0339 4.65488 11.0322 4.01772C11.0115 4.00456 10.9918 3.99994 10.9743 3.99994C10.9459 3.99994 10.9234 4.01219 10.9123 4.01969C10.8908 4.03425 10.8564 4.06744 10.8674 4.12619C11.2503 6.15938 10.1083 7.38222 8.89926 8.67685C7.65301 10.0113 6.24048 11.5238 6.24048 14.2517C6.24048 17.4213 8.81913 20 11.9888 20C14.5985 20 16.8995 18.1805 17.5842 15.5753C18.0512 13.799 17.5619 11.5362 16.3944 10.0727ZM12.1322 18.773C11.3385 18.8092 10.5837 18.5246 10.0071 17.9733C9.43679 17.4279 9.10967 16.6668 9.10967 15.8852C9.10967 14.4183 9.67054 13.3414 11.1791 11.9118C11.2038 11.8883 11.2291 11.8809 11.2511 11.8809C11.2711 11.8809 11.2884 11.887 11.3003 11.8928C11.3254 11.9048 11.3666 11.9348 11.3611 11.9995C11.3071 12.6272 11.3081 13.1482 11.3638 13.548C11.5063 14.5694 12.254 15.2557 13.2245 15.2557C13.7003 15.2557 14.1535 15.0767 14.5007 14.7515C14.5141 14.7386 14.5304 14.7292 14.5483 14.7241C14.5662 14.719 14.585 14.7184 14.6032 14.7222C14.6261 14.7272 14.6567 14.7412 14.6727 14.7798C14.8166 15.1273 14.8902 15.4963 14.8913 15.8762C14.8959 17.4051 13.6582 18.7047 12.1322 18.773Z" fill="white"/>
</g>
</g>
<defs>
<filter id="filter0_b_41_936" x="-8" y="-8" width="40" height="40" filterUnits="userSpaceOnUse" color-interpolation-filters="sRGB">
<feFlood flood-opacity="0" result="BackgroundImageFix"/>
<feGaussianBlur in="BackgroundImageFix" stdDeviation="4"/>
<feComposite in2="SourceAlpha" operator="in" result="effect1_backgroundBlur_41_936"/>
<feBlend mode="normal" in="SourceGraphic" in2="effect1_backgroundBlur_41_936" result="shape"/>
</filter>
<clipPath id="clip0_41_936">
<rect width="16" height="16" fill="white" transform="translate(4 4)"/>
</clipPath>
</defs>
</svg>
