<svg width="52" height="24" viewBox="0 0 52 24" fill="none" xmlns="http://www.w3.org/2000/svg">
<g filter="url(#filter0_b_41_920)">
<rect width="52" height="24" rx="4" fill="#43B100"/>
<path d="M9.568 12.576C9.568 12.864 9.62 13.076 9.724 13.212C9.828 13.34 9.984 13.404 10.192 13.404H10.564C10.604 13.404 10.632 13.456 10.648 13.56C10.672 13.664 10.684 13.888 10.684 14.232C10.684 14.552 10.672 14.76 10.648 14.856C10.632 14.952 10.604 15 10.564 15H10.18C9.748 15 9.388 14.928 9.1 14.784C8.82 14.632 8.624 14.388 8.512 14.052C8.344 14.196 8.124 14.304 7.852 14.376C7.588 14.44 7.312 14.472 7.024 14.472C6.304 14.472 5.752 14.276 5.368 13.884C4.992 13.484 4.804 12.892 4.804 12.108C4.804 11.66 4.904 11.244 5.104 10.86C5.312 10.468 5.6 10.156 5.968 9.924C6.344 9.684 6.772 9.564 7.252 9.564H8.044V8.784H9.568V12.576ZM6.316 12.096C6.316 12.36 6.376 12.56 6.496 12.696C6.624 12.824 6.828 12.888 7.108 12.888C7.412 12.888 7.644 12.836 7.804 12.732C7.972 12.62 8.056 12.464 8.056 12.264V11.088H7.276C6.636 11.088 6.316 11.424 6.316 12.096ZM10.9945 13.404C11.1865 13.404 11.3425 13.352 11.4625 13.248C11.5905 13.136 11.6545 12.984 11.6545 12.792V7.272H13.1905V12.732C13.1905 13.18 13.4145 13.404 13.8625 13.404H14.2345C14.3145 13.404 14.3545 13.672 14.3545 14.208C14.3545 14.736 14.3145 15 14.2345 15H13.8145C13.1185 15 12.6585 14.808 12.4345 14.424C12.1385 14.808 11.6625 15 11.0065 15H10.5625C10.4825 15 10.4425 14.744 10.4425 14.232C10.4425 13.68 10.4825 13.404 10.5625 13.404H10.9945ZM17.6025 12.864C17.6025 13.528 17.4025 14.052 17.0025 14.436C16.6105 14.812 16.0785 15 15.4065 15H14.2305C14.1505 15 14.1105 14.744 14.1105 14.232C14.1105 13.68 14.1505 13.404 14.2305 13.404H15.4065C15.6065 13.404 15.7665 13.352 15.8865 13.248C16.0145 13.136 16.0785 12.984 16.0785 12.792V10.872H17.6025V12.864ZM14.3745 17.616V16.248H16.0065V17.616H14.3745ZM23.9943 14.496C23.9943 15.544 23.7143 16.368 23.1543 16.968C22.6023 17.568 21.8423 17.868 20.8743 17.868H19.2303L19.0983 16.272H20.9703C21.4423 16.272 21.8103 16.156 22.0743 15.924C22.3383 15.7 22.4703 15.392 22.4703 15H21.6303C20.7663 15 20.1463 14.82 19.7703 14.46C19.4023 14.1 19.2183 13.528 19.2183 12.744C19.2183 12.232 19.3183 11.776 19.5183 11.376C19.7183 10.976 19.9983 10.664 20.3583 10.44C20.7263 10.216 21.1503 10.104 21.6303 10.104C22.3663 10.104 22.9423 10.344 23.3583 10.824C23.7823 11.304 23.9943 11.968 23.9943 12.816V14.496ZM20.7303 12.684C20.7303 12.94 20.7983 13.128 20.9343 13.248C21.0783 13.36 21.3303 13.416 21.6903 13.416H22.4703V12.792C22.4703 12.408 22.3943 12.116 22.2423 11.916C22.0903 11.716 21.8703 11.616 21.5823 11.616C21.3103 11.616 21.0983 11.716 20.9463 11.916C20.8023 12.108 20.7303 12.364 20.7303 12.684ZM30.1288 11.232C30.4248 11.576 30.6328 11.888 30.7528 12.168C30.8728 12.448 30.9328 12.744 30.9328 13.056C30.9328 13.624 30.7288 14.092 30.3208 14.46C29.9208 14.82 29.3608 15 28.6408 15H25.3888L25.2688 13.404H28.5688C28.8168 13.404 29.0088 13.364 29.1448 13.284C29.2808 13.204 29.3488 13.092 29.3488 12.948C29.3488 12.844 29.3208 12.744 29.2648 12.648C29.2088 12.544 29.1048 12.404 28.9528 12.228L26.8888 9.804L27.9928 8.712L30.1288 11.232Z" fill="white"/>
<path d="M4 12H31.7248V12.6H4V12Z" fill="white"/>
<path fill-rule="evenodd" clip-rule="evenodd" d="M38.8334 7.99999C38.8334 6.25052 40.2506 4.83333 42 4.83333C43.7495 4.83333 45.1667 6.25052 45.1667 7.99999V11.6667C45.1667 13.4161 43.7495 14.8333 42 14.8333C40.2506 14.8333 38.8334 13.4161 38.8334 11.6667V7.99999ZM42 5.83333C40.8028 5.83333 39.8334 6.8028 39.8334 7.99999V11.6667C39.8334 12.8639 40.8028 13.8333 42 13.8333C43.1972 13.8333 44.1667 12.8639 44.1667 11.6667V7.99999C44.1667 6.8028 43.1972 5.83333 42 5.83333Z" fill="white"/>
<path fill-rule="evenodd" clip-rule="evenodd" d="M36.8998 9.93333C37.1759 9.93333 37.3998 10.1572 37.3998 10.4333V11.5667C37.3998 14.1039 39.4626 16.1667 41.9998 16.1667C44.537 16.1667 46.5998 14.1039 46.5998 11.5667V10.4333C46.5998 10.1572 46.8236 9.93333 47.0998 9.93333C47.3759 9.93333 47.5998 10.1572 47.5998 10.4333V11.5667C47.5998 14.6561 45.0893 17.1667 41.9998 17.1667C38.9103 17.1667 36.3998 14.6561 36.3998 11.5667V10.4333C36.3998 10.1572 36.6236 9.93333 36.8998 9.93333Z" fill="white"/>
<path fill-rule="evenodd" clip-rule="evenodd" d="M42.7543 8.7561C42.2655 8.57685 41.7341 8.57685 41.2453 8.7561C40.986 8.85116 40.6988 8.71805 40.6037 8.45879C40.5086 8.19952 40.6417 7.91228 40.901 7.81722C41.6121 7.55647 42.3875 7.55647 43.0986 7.81722C43.3579 7.91228 43.491 8.19952 43.3959 8.45879C43.3008 8.71805 43.0136 8.85116 42.7543 8.7561Z" fill="white"/>
<path fill-rule="evenodd" clip-rule="evenodd" d="M42.4121 10.1834C42.1424 10.1122 41.8638 10.1122 41.5941 10.1834C41.3271 10.2539 41.0535 10.0947 40.983 9.82769C40.9125 9.5607 41.0718 9.28709 41.3387 9.21657C41.7758 9.10113 42.2304 9.10113 42.6675 9.21657C42.9344 9.28709 43.0937 9.5607 43.0232 9.82769C42.9527 10.0947 42.6791 10.2539 42.4121 10.1834Z" fill="white"/>
<path fill-rule="evenodd" clip-rule="evenodd" d="M42 16.1667C42.2761 16.1667 42.5 16.3905 42.5 16.6667V18.6667C42.5 18.9428 42.2761 19.1667 42 19.1667C41.7239 19.1667 41.5 18.9428 41.5 18.6667V16.6667C41.5 16.3905 41.7239 16.1667 42 16.1667Z" fill="white"/>
</g>
<defs>
<filter id="filter0_b_41_920" x="-8" y="-8" width="68" height="40" filterUnits="userSpaceOnUse" color-interpolation-filters="sRGB">
<feFlood flood-opacity="0" result="BackgroundImageFix"/>
<feGaussianBlur in="BackgroundImageFix" stdDeviation="4"/>
<feComposite in2="SourceAlpha" operator="in" result="effect1_backgroundBlur_41_920"/>
<feBlend mode="normal" in="SourceGraphic" in2="effect1_backgroundBlur_41_920" result="shape"/>
</filter>
</defs>
</svg>
